<?xml version="1.0" encoding="UTF-8" standalone="no"?>
<!-- Created with Inkscape (http://www.inkscape.org/) -->

<svg
   width="106mm"
   height="106mm"
   viewBox="0 0 106 106"
   version="1.1"
   id="svg5"
   xml:space="preserve"
   inkscape:version="1.2.2 (732a01da63, 2022-12-09)"
   sodipodi:docname="avatar3.svg"
   inkscape:export-filename="avatar3.svg"
   inkscape:export-xdpi="96"
   inkscape:export-ydpi="96"
   xmlns:inkscape="http://www.inkscape.org/namespaces/inkscape"
   xmlns:sodipodi="http://sodipodi.sourceforge.net/DTD/sodipodi-0.dtd"
   xmlns:xlink="http://www.w3.org/1999/xlink"
   xmlns="http://www.w3.org/2000/svg"
   xmlns:svg="http://www.w3.org/2000/svg"><sodipodi:namedview
     id="namedview7"
     pagecolor="#818181"
     bordercolor="#000000"
     borderopacity="0.25"
     inkscape:showpageshadow="2"
     inkscape:pageopacity="0"
     inkscape:pagecheckerboard="0"
     inkscape:deskcolor="#d1d1d1"
     inkscape:document-units="mm"
     showgrid="false"
     inkscape:zoom="1.7398555"
     inkscape:cx="160.35815"
     inkscape:cy="237.66342"
     inkscape:window-width="1920"
     inkscape:window-height="1001"
     inkscape:window-x="-9"
     inkscape:window-y="-9"
     inkscape:window-maximized="1"
     inkscape:current-layer="layer4"
     showguides="false" /><defs
     id="defs2"><linearGradient
       inkscape:collect="always"
       id="linearGradient692"><stop
         style="stop-color:#d2d2d2;stop-opacity:0.92250925;"
         offset="0"
         id="stop688" /><stop
         style="stop-color:#95a2da;stop-opacity:0;"
         offset="1"
         id="stop690" /></linearGradient><linearGradient
       inkscape:collect="always"
       id="linearGradient11689"><stop
         style="stop-color:#5efd7d;stop-opacity:1;"
         offset="0"
         id="stop11685" /><stop
         style="stop-color:#3aed12;stop-opacity:0;"
         offset="1"
         id="stop11687" /></linearGradient><inkscape:path-effect
       effect="powerstroke"
       id="path-effect9567"
       is_visible="true"
       lpeversion="1"
       offset_points="2.628302,0.47066571"
       not_jump="true"
       sort_points="true"
       interpolator_type="CentripetalCatmullRom"
       interpolator_beta="0.75"
       start_linecap_type="square"
       linejoin_type="spiro"
       miter_limit="4"
       scale_width="1"
       end_linecap_type="square" /><inkscape:path-effect
       effect="simplify"
       id="path-effect9565"
       is_visible="true"
       lpeversion="1"
       steps="1"
       threshold="0.0047745358"
       smooth_angles="0"
       helper_size="0"
       simplify_individual_paths="false"
       simplify_just_coalesce="false"
       step="1" /><inkscape:path-effect
       effect="powerstroke"
       id="path-effect9553"
       is_visible="true"
       lpeversion="1"
       offset_points="0.5,0.45149723"
       not_jump="true"
       sort_points="true"
       interpolator_type="CentripetalCatmullRom"
       interpolator_beta="0.75"
       start_linecap_type="square"
       linejoin_type="spiro"
       miter_limit="4"
       scale_width="1"
       end_linecap_type="square" /><inkscape:path-effect
       effect="simplify"
       id="path-effect9551"
       is_visible="true"
       lpeversion="1"
       steps="1"
       threshold="0.0047745358"
       smooth_angles="0"
       helper_size="0"
       simplify_individual_paths="false"
       simplify_just_coalesce="false"
       step="1" /><filter
       style="color-interpolation-filters:sRGB"
       inkscape:label="Clean Edges"
       id="filter7756"
       x="-0.0029785242"
       y="-0.0025583219"
       width="1.0106213"
       height="1.0061855"><feGaussianBlur
         stdDeviation="0.1"
         result="blur"
         id="feGaussianBlur7750" /><feComposite
         in="SourceGraphic"
         in2="blur"
         operator="in"
         result="composite1"
         id="feComposite7752" /><feComposite
         in="composite1"
         in2="composite1"
         operator="in"
         result="composite2"
         id="feComposite7754" /></filter><linearGradient
       inkscape:collect="always"
       xlink:href="#linearGradient11689"
       id="linearGradient11691"
       x1="117.50127"
       y1="52.722969"
       x2="130.24196"
       y2="52.722969"
       gradientUnits="userSpaceOnUse" /><filter
       style="color-interpolation-filters:sRGB"
       inkscape:label="Clean Edges"
       id="filter13659"
       x="-0.093318664"
       y="-0.54734868"
       width="1.296041"
       height="2.0059268"><feGaussianBlur
         stdDeviation="0.1"
         result="blur"
         id="feGaussianBlur13653" /><feComposite
         in="SourceGraphic"
         in2="blur"
         operator="in"
         result="composite1"
         id="feComposite13655" /><feComposite
         in="composite1"
         in2="composite1"
         operator="in"
         result="composite2"
         id="feComposite13657" /></filter><filter
       style="color-interpolation-filters:sRGB"
       inkscape:label="Clean Edges"
       id="filter15145"
       x="-0.92151397"
       y="-0.14738616"
       width="2.786489"
       height="1.364145"><feGaussianBlur
         stdDeviation="0.1"
         result="blur"
         id="feGaussianBlur15139" /><feComposite
         in="SourceGraphic"
         in2="blur"
         operator="in"
         result="composite1"
         id="feComposite15141" /><feComposite
         in="composite1"
         in2="composite1"
         operator="in"
         result="composite2"
         id="feComposite15143" /></filter><linearGradient
       inkscape:collect="always"
       xlink:href="#linearGradient692"
       id="linearGradient694"
       x1="226.85037"
       y1="214.63708"
       x2="54.997013"
       y2="588.80609"
       gradientUnits="userSpaceOnUse"
       gradientTransform="matrix(0.26458333,0,0,0.26458333,32.955944,37.56179)" /></defs><g
     inkscape:groupmode="layer"
     id="layer4"
     inkscape:label="Capa 4"><g
       id="g15588"
       transform="translate(-32.60418,-37.324178)"><path
         style="display:inline;fill:#000000;stroke:#000000;stroke-width:0.264491;stroke-dasharray:none;stroke-opacity:1;filter:url(#filter7756);image-rendering:auto"
         d="m 53.270268,84.375 -0.638511,-5.655406 -1.003379,-8.391892 3.192568,3.10135 1.277028,1.185812 L 54,69.233107 l 3.10135,2.462837 0.364866,-4.013512 1.003377,-3.466216 1.824326,-3.283784 1.45946,-2.736487 2.189189,-2.371622 L 66.31419,54 l 1.185809,-2.280407 0.912162,3.283784 v 3.192568 l -0.182433,0.820946 1.915541,-2.462837 3.375001,-3.739866 2.371622,-2.64527 2.189189,-3.283784 1.733108,-3.466216 0.09122,-2.097974 0.820946,4.743244 c 0,0 0.285057,2.405827 -0.228034,4.378378 l -0.684122,1.915541 5.336147,-4.33277 c 1.812922,-1.117399 5.518582,-2.326012 5.518582,-2.326012 l 4.195945,-1.277027 4.287163,-2.097974 0.638514,-0.456081 -2.097974,4.652026 -2.918918,3.283786 -0.729731,0.820944 2.91892,-0.273648 2.189189,-0.729729 1.003384,-0.547299 -1.550682,1.459461 -2.189189,1.550675 3.466216,-0.820947 2.280405,-1.185809 2.46284,-2.554055 1.27703,-1.824323 0.91216,-2.736488 -1.36825,5.929054 -1.18581,2.371621 -1.82432,3.192569 -0.45608,0.638513 3.64865,0.273648 4.65202,0.912162 3.10135,1.368245 -2.73648,1.003377 -3.83108,3.010135 -0.63852,0.638514 2.82732,0.457617 2.90555,0.939242 c 1.07303,0.292887 2.7194,2.23266 3.70583,1.870377 2.03064,-0.74579 -3.73822,1.695459 -3.34368,2.341219 0.61368,1.004419 0.84523,0.95619 1.42536,1.551591 0.26452,0.27148 1.83687,1.411249 2.70881,1.41457 1.07596,0.0041 1.86904,0.07362 1.53656,0.0506 -0.32232,-0.02232 -2.29894,1.135021 -2.76369,1.375697 -0.20086,0.104018 -0.84951,0.419897 -1.15744,0.79921 -0.28698,0.353516 -0.43846,0.611385 -0.50335,0.702831 -0.0577,0.08127 -0.0571,0.0023 0.13195,0.17993 0.15893,0.149319 0.8325,0.302744 1.41998,0.532832 0.22852,0.0895 1.24909,0.628824 1.61752,0.855064 0.49234,0.302333 0.9427,0.919787 1.03101,1.234393 0.0183,0.06509 -0.22708,-0.06822 -0.28169,-0.08697 -0.47977,-0.164756 -0.70937,-0.156042 -1.19944,-0.07842 -0.31287,0.04955 -0.94231,0.5372 -1.22898,0.786952 -0.25613,0.223139 -0.81264,0.942889 -1.01278,1.207288 -0.32545,0.429939 -0.61649,0.857608 -0.82842,1.287583 -0.35754,0.725377 -0.85692,1.387327 -1.21221,1.963268 -0.65526,1.062199 -1.71135,2.233763 -1.71135,2.233763 0,0 -2.79283,4.084318 -2.15135,8.573941 l 0.82095,6.841217 -2.64513,9.9572 c 0,0 -0.92369,5.42739 -1.19133,5.7237 l -0.61223,0.81934 c -0.59262,0.25807 -9.416172,5.30043 -9.416172,5.30043 l 0.529564,7.89237 0.854564,4.92965 17.543964,1.94062 3.01592,1.25801 9.22394,4.4647 3.89233,2.31142 -94.411131,0.0162 9.563935,-3.13611 7.666962,-3.77608 8.086426,-3.48868 4.373772,-1.21489 0.490783,-16.86392 -1.09686,-5.58448 z"
         id="path945"
         sodipodi:nodetypes="ccccccccccccccccccccccccccccccccccccccccccccccccccccccccssssssssssssssssssccccccccccccccccccccc"
         transform="matrix(0.9943623,0,0,0.9943623,0.47820903,0.49618593)"
         inkscape:label="path945"
         inkscape:transform-center-x="3.3455851"
         inkscape:transform-center-y="0.30414743"
         sodipodi:insensitive="true" /><ellipse
         style="display:inline;opacity:1;fill:none;stroke:#5ffd80;stroke-width:0.919874;stroke-dasharray:none;stroke-opacity:1"
         id="path6896"
         transform="matrix(0.91452438,-0.40453077,0.03992726,0.99920258,0,0)"
         ry="12.326212"
         rx="53.266045"
         cy="133.49342"
         cx="88.942314" /><path
         style="display:inline;opacity:1;fill:url(#linearGradient11691);fill-opacity:0.763848;stroke:#5efd83;stroke-width:1.065;stroke-dasharray:none;stroke-opacity:0"
         id="path6901"
         sodipodi:type="arc"
         sodipodi:cx="123.87162"
         sodipodi:cy="52.722973"
         sodipodi:rx="5.8378377"
         sodipodi:ry="4.7432432"
         sodipodi:start="0"
         sodipodi:end="6.261005"
         sodipodi:arc-type="arc"
         d="m 129.70946,52.722973 a 5.8378377,4.7432432 0 0 1 -5.80547,4.74317 5.8378377,4.7432432 0 0 1 -5.86985,-4.690568 5.8378377,4.7432432 0 0 1 5.74037,-4.795189 5.8378377,4.7432432 0 0 1 5.93351,4.637389"
         sodipodi:open="true"
         inkscape:label="path6901" /><path
         style="display:inline;opacity:1;fill:#000000;fill-opacity:0.763848;stroke:#000000;stroke-width:1.065;stroke-dasharray:none;stroke-opacity:1;filter:url(#filter13659)"
         d="m 115.42126,76.172381 c -0.32283,-0.27202 -0.6979,-0.464081 -1.06187,-0.672068 -0.0767,-0.04384 -0.14835,-0.0972 -0.22851,-0.134413 -0.96057,-0.445985 -0.18403,-0.06592 -0.76616,-0.295712 -0.0914,-0.03608 -0.17921,-0.08065 -0.26882,-0.120973 -0.11202,-0.0448 -0.22379,-0.0902 -0.33604,-0.134413 -0.077,-0.03032 -0.13183,-0.05377 -0.21506,-0.05377"
         id="path13282"
         transform="matrix(1.0894222,0.00758588,-0.45981719,0.68881603,24.506407,22.226381)"
         inkscape:transform-center-x="0.15819796"
         inkscape:transform-center-y="0.13002422" /><path
         style="display:inline;opacity:1;fill:#000000;fill-opacity:0.763848;stroke:#000000;stroke-width:1.065;stroke-dasharray:none;stroke-opacity:1;filter:url(#filter15145)"
         d="m 60.042313,97.226261 c 0.07804,0.507376 0.296258,0.97616 0.501467,1.441251 0.289821,0.656865 0.172873,0.411565 0.330111,0.736378"
         id="path14774" /><rect
         style="display:inline;opacity:1;fill:#000000;fill-opacity:1;stroke:#000000;stroke-width:1.04441;stroke-dasharray:none;stroke-opacity:1"
         id="rect15562"
         width="47.531261"
         height="8.8232479"
         x="146.52467"
         y="-167.96521"
         transform="matrix(0.93485565,-0.35502808,0.43785483,-0.89904567,0,0)" /><path
         style="display:inline;opacity:1;fill:#000000;fill-opacity:1;stroke:#000000;stroke-width:1.065;stroke-dasharray:none;stroke-opacity:1"
         d="m 60.311537,97.678614 0.376359,1.048428 0.10753,0.215061 4.543192,-2.661396 -0.537655,-1.572641 z"
         id="path15564" /><path
         style="display:inline;fill:#000000;fill-opacity:1;stroke:#000000;stroke-width:1.065;stroke-dasharray:none;stroke-opacity:1"
         d="m 63.712092,96.789628 0.376359,1.048428 0.10753,0.215061 4.543192,-2.661396 -0.537655,-1.572641 z"
         id="path15564-4"
         inkscape:label="path15564-4" /><path
         style="display:inline;opacity:1;fill:#000000;fill-opacity:1;stroke:#000000;stroke-width:1.065;stroke-dasharray:none;stroke-opacity:1"
         d="m 109.96361,75.573467 3.45964,-0.779367 1.57775,0.798377 -3.72576,1.178558 z"
         id="path15566" /><path
         style="fill:url(#linearGradient694);fill-opacity:1;stroke:none;stroke-width:0.612119;stroke-opacity:0.0115274"
         d="m 37.900255,143.36718 c 0.0011,-0.0634 1.694787,-0.6605 3.763783,-1.3268 3.362214,-1.08278 4.15758,-1.4076 7.487576,-3.05788 5.421739,-2.68691 11.782044,-5.38878 14.294771,-6.07246 1.129133,-0.30722 2.095896,-0.60378 2.148358,-0.65902 0.05246,-0.0552 0.20502,-3.89961 0.339013,-8.54304 l 0.243626,-8.44261 -0.542369,-2.81072 -0.54237,-2.81072 -5.705859,-12.621982 -5.705858,-12.621977 -0.738708,-6.158917 c -0.40629,-3.387403 -0.741061,-6.356779 -0.743936,-6.598611 -0.0048,-0.407926 0.13184,-0.306305 1.892084,1.406668 2.609135,2.539066 2.737303,2.49428 1.552187,-0.542369 -0.450203,-1.153568 -0.799345,-2.121189 -0.775872,-2.150266 0.02347,-0.02908 0.53016,0.336084 1.125968,0.811469 0.595807,0.475385 1.168869,0.831495 1.27347,0.791355 0.125733,-0.04825 0.246838,-0.73669 0.357359,-2.0315 0.264704,-3.101091 0.791089,-4.667443 2.818626,-8.387293 1.873703,-3.437617 2.765494,-4.557563 5.014476,-6.297357 0.925613,-0.716047 1.303914,-1.12554 1.62328,-1.757128 l 0.416412,-0.823502 0.339407,1.238467 c 0.282398,1.030443 0.335449,1.587655 0.315849,3.317343 -0.01458,1.286064 0.03504,2.098407 0.130083,2.13009 0.08451,0.02817 0.542774,-0.448411 1.018378,-1.059063 0.475607,-0.610652 2.20799,-2.604429 3.849743,-4.430614 3.239228,-3.60312 4.465601,-5.280141 5.899571,-8.067447 0.511371,-0.993986 0.965377,-1.746743 1.008904,-1.672792 0.235426,0.399979 0.452239,2.929892 0.383754,4.477925 -0.06147,1.389475 -0.157321,1.946618 -0.476446,2.769368 -0.219723,0.566477 -0.399497,1.096828 -0.399497,1.178558 0,0.421345 0.735187,-0.04458 3.139638,-1.989738 3.419335,-2.766187 4.525484,-3.312769 10.294255,-5.086712 1.371116,-0.421629 2.96736,-1.050216 4.067927,-1.601913 0.99623,-0.499394 1.811326,-0.847547 1.811326,-0.773673 0,0.197704 -1.421188,3.275569 -1.679638,3.637593 -0.121695,0.170462 -0.959202,1.1399 -1.861127,2.154306 -0.901922,1.014407 -1.594688,1.917467 -1.539478,2.006801 0.130485,0.21113 2.752849,0.02291 3.704191,-0.265877 1.069176,-0.324549 1.058127,-0.269214 -0.110678,0.554252 -0.599165,0.422135 -1.13338,0.838692 -1.187143,0.925682 -0.254408,0.411642 0.284292,0.408464 2.005475,-0.01183 2.604994,-0.636118 3.814544,-1.321929 5.421014,-3.073708 0.68768,-0.74988 1.3795,-1.567431 1.53737,-1.816778 0.15788,-0.249348 0.30776,-0.432651 0.33307,-0.40734 0.0253,0.02531 -0.0749,0.566032 -0.22261,1.201602 -0.27769,1.194537 -1.20956,3.104839 -2.8081,5.756456 -0.47028,0.780083 -0.85505,1.471872 -0.85505,1.537307 0,0.189057 0.42346,0.2629 2.12901,0.371258 2.27705,0.144668 6.19768,0.984371 7.58852,1.625278 l 1.12545,0.518616 -1.12545,0.414559 c -0.909,0.334829 -1.53493,0.742512 -3.25447,2.119726 -1.31325,1.051806 -2.14625,1.825778 -2.17401,2.019947 -0.0407,0.284283 0.0772,0.333205 1.21657,0.50495 2.00475,0.302195 4.57739,1.173958 5.6681,1.920689 0.5193,0.355523 1.13264,0.745154 1.36299,0.865846 l 0.41882,0.219438 -1.09594,0.651086 c -1.23005,0.730756 -1.67076,1.116018 -1.67076,1.460532 0,0.696553 2.65272,2.818339 3.92368,3.138371 l 0.66403,0.167206 -1.25305,0.701069 c -1.32697,0.742426 -2.19609,1.613477 -2.03327,2.037781 0.0525,0.136811 0.46694,0.387737 0.92098,0.557613 1.20328,0.450207 2.22252,0.992584 2.55345,1.358788 0.2893,0.320151 0.28898,0.320583 -0.24006,0.320583 -0.33217,0 -0.78234,0.167306 -1.20697,0.448574 -0.67324,0.445934 -1.96932,2.031842 -2.49186,3.049082 -0.38905,0.757383 -1.68773,2.671218 -2.45965,3.624731 -1.23331,1.523458 -2.19972,4.01352 -2.49263,6.422565 -0.14795,1.216774 -0.115,1.780317 0.31375,5.366004 l 0.47906,4.00645 -1.36401,5.231193 c -0.7502,2.87717 -1.56827,6.30977 -1.81792,7.628 -0.31794,1.67877 -0.55598,2.54575 -0.7946,2.89398 -0.25671,0.37465 -1.43996,1.11443 -4.801172,3.00176 -2.453275,1.37752 -4.579263,2.58985 -4.72441,2.69407 -0.250479,0.17985 -0.250341,0.39756 0.0027,4.27806 0.242689,3.72146 0.900602,8.63153 1.196163,8.92709 0.05155,0.0515 4.016129,0.52904 8.810189,1.0611 l 8.71647,0.96736 1.74883,0.74969 c 3.65504,1.56685 13.40731,6.48156 13.18822,6.64628 -0.1227,0.0923 -90.744548,0.19917 -90.742974,0.10707 z"
         id="path686"
         inkscape:highlight-color="#98a936"
         inkscape:label="path686"
         sodipodi:insensitive="true" /><path
         style="fill:#333333;fill-opacity:1;stroke:none;stroke-width:0.28089;stroke-dasharray:none;stroke-opacity:1"
         d="m 88.631839,92.774334 0.859403,0.405382 0.569637,0.116363 0.771013,0.03925 0.725129,-0.133543 0.628907,-0.165836 0.54609,-0.30207 0.318436,-0.290028 0.221437,-0.30033 0.153873,-0.456285 0.03583,-0.488895 -0.04508,-0.341304 z"
         id="path5725"
         sodipodi:nodetypes="ccccccccccccc" /><path
         style="fill:#333333;fill-opacity:1;stroke:none;stroke-width:0.305805;stroke-dasharray:none;stroke-opacity:1"
         d="m 70.143217,51.324304 0.16692,0.246835 0.130904,0.157258 0.189063,0.161762 0.351212,0.151504 0.38491,0.06201 0.329209,0.05036 0.381888,-0.0012 0.338287,-0.07373 0.305051,-0.207864 0.158501,-0.259685 0.08773,-0.287244 -1.610203,-0.228108 z"
         id="path6509"
         transform="translate(32.60418,37.324178)"
         sodipodi:nodetypes="cccccccccccccc" /><path
         d="m 102.67775,88.708264 c 0.27145,-0.09129 0.84538,-0.246322 1.59298,-0.14971 0.73109,0.09129 1.45231,0.35875 2.06815,0.601387 0.59287,0.233589 1.01225,0.39961 1.01225,0.39961 0,0 -0.99775,-0.39481 -1.19596,-0.471293 l 0.43911,0.169438 0.33888,-0.878218 -0.43911,-0.169438 c 0.20626,0.07959 1.19071,0.469497 1.19071,0.469497 0,0 -0.39208,-0.155559 -1.00082,-0.395401 -0.61395,-0.241896 -1.43475,-0.552049 -2.29458,-0.659405 -0.93541,-0.120888 -1.66021,0.0731 -2.01167,0.191309 l -0.44612,0.150034 0.30007,0.892224 z"
         id="path-1-3"
         style="display:inline;opacity:1;fill:#333333;fill-opacity:1;fill-rule:nonzero;stroke:none;stroke-width:4.19609;stroke-dasharray:none;stroke-opacity:0"
         sodipodi:nodetypes="cc"
         inkscape:original-d="m 102.52772,88.262152 c 1.21478,-0.400077 2.32846,-0.183273 3.79689,0.386997"
         inkscape:path-effect="#path-effect9565;#path-effect9567" /><path
         d="m 85.571971,94.408312 c 0.589134,-0.34521 2.412141,-1.284035 3.676794,-1.823052 1.457684,-0.621289 3.011926,-1.187713 3.860189,-1.496157 l 0.424317,-0.15429 -0.308579,-0.848633 -0.424316,0.154289 c -0.846512,0.307808 -2.422452,0.881932 -3.905664,1.514102 -1.289712,0.549697 -3.168916,1.517008 -3.779261,1.874647 l -0.389547,0.22826 0.45652,0.779094 z"
         id="path-1"
         style="display:inline;opacity:1;fill:#333333;fill-opacity:1;fill-rule:nonzero;stroke:none;stroke-width:4.0252;stroke-dasharray:none;stroke-opacity:0"
         inkscape:original-d="m 85.343711,94.018765 c 2.399585,-1.405962 5.004302,-2.406106 7.610954,-3.353979"
         inkscape:path-effect="#path-effect9551;#path-effect9553" /></g></g></svg>
